{"glyphs":{":":{"x_min":0,"x_max":250,"ha":250,"o":"m 185 450 l 92 450 l 113 549 l 207 549 z m 100 0 l 7 0 l 28 100 l 122 100 z"},"$":{"x_min":0,"x_max":498,"ha":498,"o":"m 245 432 l 295 672 l 293 672 q 239 672 204 634 q 170 595 170 536 q 170 497 187 473 q 204 449 245 432 z m 269 337 l 213 69 l 222 69 q 283 69 320 112 q 357 155 357 224 q 357 268 335 295 q 314 323 269 337 z m 28 233 l 100 233 l 100 207 q 100 153 118 121 q 135 88 171 76 l 228 353 q 157 381 127 420 q 96 459 96 522 q 96 622 152 680 q 208 739 303 739 l 310 739 l 325 803 l 367 803 l 352 733 q 413 717 444 674 q 475 631 475 566 q 475 557 475 553 q 475 549 474 545 l 403 545 l 403 550 q 403 599 388 626 q 373 652 338 665 l 285 414 q 369 383 402 344 q 434 304 434 233 q 434 126 373 63 q 311 0 206 0 l 199 0 l 178 -100 l 134 -100 l 156 6 q 92 25 59 74 q 26 124 26 200 q 26 211 28 231 q 28 232 28 233 z"},"?":{"x_min":0,"x_max":498,"ha":498,"o":"m 200 0 l 107 0 l 126 98 l 219 98 z m 223 191 l 147 191 q 153 274 179 325 q 205 375 275 429 l 329 470 q 355 490 372 525 q 388 560 388 599 q 388 644 362 671 q 335 698 291 698 q 241 698 211 662 q 181 626 179 563 l 97 563 q 101 655 155 712 q 208 769 292 769 q 377 769 427 721 q 476 674 476 593 q 476 532 446 481 q 417 430 357 390 l 322 366 q 273 333 251 295 q 229 256 223 191 z"},"<":{"x_min":0,"x_max":833,"ha":833,"o":"m 704 491 l 231 298 l 704 106 l 704 31 l 129 267 l 129 330 l 704 566 z"},"'":{"x_min":0,"x_max":155,"ha":155,"o":"m 112 701 l 112 430 l 44 430 l 44 701 z"},"=":{"x_min":0,"x_max":833,"ha":833,"o":"m 709 235 l 709 167 l 124 167 l 124 235 z m 709 429 l 709 361 l 124 361 l 124 429 z"},"a":{"x_min":0,"x_max":444,"ha":444,"o":"m 282 286 q 268 279 253 274 q 238 269 217 264 l 172 254 q 117 242 92 212 q 67 182 67 128 q 67 92 86 71 q 105 50 138 50 q 190 50 220 88 q 250 127 272 234 z m 255 69 q 226 23 195 4 q 165 -15 122 -15 q 59 -15 24 24 q -11 62 -11 133 q -11 209 26 252 q 63 294 148 314 l 241 336 q 280 345 295 372 q 311 399 311 453 q 311 479 290 495 q 269 511 232 511 q 187 511 165 488 q 143 465 140 415 l 66 415 q 71 492 115 534 q 159 575 236 575 q 312 575 350 543 q 389 512 389 450 q 389 437 387 420 q 384 403 378 375 l 327 120 q 324 105 323 96 q 322 87 322 82 q 322 66 332 60 q 343 53 371 53 l 362 0 q 353 -5 343 -7 q 333 -9 321 -9 q 287 -9 270 6 q 253 20 253 50 q 253 54 254 64 q 255 67 255 69 z"},"L":{"x_min":0,"x_max":432,"ha":432,"o":"m -10 0 l 146 752 l 232 752 l 91 76 l 383 76 l 369 0 z"},"3":{"x_min":0,"x_max":498,"ha":498,"o":"m 19 233 l 97 233 q 97 224 96 215 q 96 207 96 199 q 96 124 122 90 q 148 56 204 56 q 266 56 305 107 q 344 158 344 239 q 344 298 306 328 q 268 359 195 359 l 192 359 l 205 423 l 219 423 q 308 423 352 462 q 396 501 396 581 q 396 630 372 656 q 349 681 302 681 q 257 681 227 650 q 197 618 186 559 l 110 559 q 121 650 172 701 q 224 753 303 753 q 385 753 432 706 q 479 659 479 577 q 479 503 439 450 q 400 396 335 383 q 382 356 405 318 q 427 281 427 229 q 427 123 365 53 q 303 -16 206 -16 q 117 -16 65 36 q 13 89 13 179 q 13 192 15 205 q 16 219 19 233 z"},";":{"x_min":0,"x_max":250,"ha":250,"o":"m 184 450 l 91 450 l 112 549 l 206 549 z m 28 99 l 121 99 l 95 -24 q 85 -73 54 -104 q 23 -136 -23 -143 l -16 -101 q 15 -90 31 -66 q 47 -42 52 0 l 7 0 z"},"J":{"x_min":0,"x_max":428,"ha":428,"o":"m 313 157 q 292 59 251 21 q 209 -17 131 -17 q 56 -17 17 21 q -21 60 -21 135 q -21 153 -18 177 q -15 201 -9 230 l 70 230 q 65 199 62 175 q 60 150 60 134 q 60 94 78 75 q 95 56 132 56 q 173 56 195 82 q 217 107 236 198 l 351 752 l 437 752 z"},"V":{"x_min":0,"x_max":517,"ha":517,"o":"m 212 0 l 110 0 l 65 752 l 146 752 l 178 95 l 479 752 l 572 752 z"},"\"":{"x_min":0,"x_max":300,"ha":300,"o":"m 256 701 l 256 430 l 188 430 l 188 701 z m 112 701 l 112 430 l 44 430 l 44 701 z"},"7":{"x_min":0,"x_max":498,"ha":498,"o":"m 184 0 l 99 0 q 124 177 208 348 q 292 519 427 665 l 119 665 l 133 741 l 514 741 l 503 672 q 374 523 292 350 q 210 177 184 0 z"},"S":{"x_min":0,"x_max":540,"ha":540,"o":"m 17 230 l 97 230 l 97 218 q 97 134 128 95 q 160 56 227 56 q 300 56 342 99 q 384 142 384 216 q 384 301 255 353 q 234 361 222 366 q 152 394 123 434 q 93 474 93 538 q 93 642 155 706 q 217 769 319 769 q 410 769 463 719 q 517 670 517 585 q 517 576 517 571 q 517 566 516 562 l 436 562 l 436 572 q 436 631 406 663 q 375 695 319 695 q 255 695 217 655 q 178 615 178 551 q 178 476 306 422 q 315 418 320 416 q 414 376 442 336 q 471 295 471 226 q 471 117 403 49 q 334 -18 223 -18 q 125 -18 70 38 q 15 95 15 195 q 15 207 17 227 q 17 229 17 230 z"},"}":{"x_min":0,"x_max":500,"ha":500,"o":"m 281 546 l 281 426 q 281 354 307 324 q 333 295 397 295 q 400 295 408 295 q 415 296 419 296 l 419 223 q 416 223 408 224 q 401 224 398 224 q 333 224 307 195 q 281 165 281 92 l 281 -28 q 281 -100 270 -131 q 259 -162 232 -178 q 211 -191 182 -197 q 152 -202 99 -202 l 78 -202 l 78 -130 l 97 -130 q 156 -130 176 -108 q 197 -86 197 -17 l 197 100 q 197 178 219 211 q 240 245 295 259 q 240 273 219 307 q 197 340 197 418 l 197 536 q 197 604 176 626 q 156 648 97 648 l 78 648 l 78 721 l 96 721 q 148 721 180 715 q 211 709 232 696 q 259 679 270 649 q 281 618 281 546 z"},"Z":{"x_min":0,"x_max":448,"ha":448,"o":"m 381 0 l -33 0 l -19 75 l 372 681 l 69 681 l 86 752 l 480 752 l 467 681 l 79 75 l 399 75 z"},"x":{"x_min":0,"x_max":392,"ha":392,"o":"m 164 219 l 21 0 l -70 0 l 129 296 l 46 560 l 128 560 l 188 364 l 321 560 l 413 560 l 220 286 l 315 0 l 234 0 z"},")":{"x_min":0,"x_max":319,"ha":319,"o":"m 89 752 l 140 752 q 187 666 210 571 q 234 477 234 378 q 234 218 169 67 q 104 -83 -14 -200 l -75 -200 q 33 -85 92 77 q 151 239 151 421 q 151 512 135 597 q 119 682 89 752 z"},"&":{"x_min":0,"x_max":575,"ha":575,"o":"m 248 474 q 297 499 323 532 q 349 566 349 604 q 349 640 331 661 q 313 681 281 681 q 249 681 229 658 q 209 635 209 598 q 209 573 218 544 q 227 515 248 474 z m 366 58 q 333 22 288 2 q 244 -17 195 -17 q 110 -17 55 40 q 1 97 1 188 q 1 267 47 328 q 94 390 184 430 q 157 475 143 517 q 129 559 129 597 q 129 665 173 709 q 218 754 283 754 q 346 754 387 714 q 429 674 429 612 q 429 548 390 497 q 351 445 277 411 l 390 190 q 412 218 425 250 q 439 281 446 318 l 525 318 q 510 258 484 209 q 459 160 423 120 l 484 0 l 395 0 z m 334 126 l 212 370 q 146 335 114 292 q 81 249 81 196 q 81 140 116 102 q 151 64 203 64 q 239 64 272 80 q 305 95 334 126 z"},"_":{"x_min":0,"x_max":500,"ha":500,"o":"m 500 -166 l 500 -236 l 0 -236 l 0 -166 z"},"v":{"x_min":0,"x_max":405,"ha":405,"o":"m 162 0 l 79 0 l 41 560 l 119 560 l 139 93 l 340 560 l 428 560 z"},"O":{"x_min":0,"x_max":597,"ha":597,"o":"m 349 698 q 296 698 258 666 q 220 634 194 568 q 182 537 171 496 q 159 455 149 407 q 135 338 128 289 q 122 239 122 198 q 122 130 156 93 q 191 55 253 55 q 304 55 341 86 q 378 116 403 179 q 415 208 426 250 q 438 292 449 345 q 463 415 471 473 q 479 530 479 563 q 479 626 445 662 q 410 698 349 698 z m 36 215 q 36 257 43 310 q 50 363 64 425 q 78 484 93 532 q 109 580 127 617 q 166 694 221 732 q 277 770 351 770 q 454 770 508 710 q 562 651 562 537 q 562 495 555 443 q 548 391 534 329 q 521 272 505 223 q 489 174 472 137 q 435 60 378 21 q 322 -17 246 -17 q 143 -17 90 42 q 36 102 36 215 z"},"(":{"x_min":0,"x_max":319,"ha":319,"o":"m 224 -200 l 173 -200 q 126 -114 103 -19 q 79 76 79 175 q 79 334 144 485 q 208 635 327 752 l 387 752 q 279 637 220 475 q 161 313 161 131 q 161 42 177 -44 q 193 -129 224 -200 z"},"C":{"x_min":0,"x_max":577,"ha":577,"o":"m 415 248 l 492 248 q 471 123 404 52 q 336 -18 237 -18 q 138 -18 87 42 q 36 103 36 221 q 36 313 62 425 q 87 537 126 618 q 164 695 219 733 q 275 771 351 771 q 442 771 492 720 q 541 670 541 576 q 541 562 540 545 q 539 527 536 504 l 456 504 q 458 521 458 536 q 459 551 459 564 q 459 632 430 668 q 400 703 344 703 q 292 703 254 668 q 216 634 191 564 q 180 533 169 491 q 158 449 148 400 q 136 343 130 292 q 124 241 124 204 q 124 128 154 90 q 184 51 243 51 q 305 51 351 103 q 396 155 415 248 z"},"W":{"x_min":0,"x_max":796,"ha":796,"o":"m 206 0 l 109 0 l 67 752 l 150 752 l 172 103 l 404 752 l 506 752 l 527 103 l 759 752 l 845 752 l 562 0 l 461 0 l 438 637 z"},"A":{"x_min":0,"x_max":514,"ha":514,"o":"m 158 288 l 352 288 l 341 694 z m 26 0 l -64 0 l 297 752 l 400 752 l 443 0 l 362 0 l 354 212 l 123 212 z"},"f":{"x_min":0,"x_max":255,"ha":255,"o":"m -5 0 l 102 500 l 36 500 l 49 560 l 115 560 l 138 657 q 152 715 175 737 q 198 758 241 758 q 253 758 270 756 q 287 754 312 750 l 298 686 q 295 686 289 687 q 271 688 265 688 q 240 688 228 675 q 216 663 208 627 l 194 560 l 271 560 l 259 500 l 181 500 l 73 0 z"},"Q":{"x_min":0,"x_max":597,"ha":597,"o":"m 304 190 l 376 122 q 392 142 405 174 q 417 206 431 260 q 454 353 467 435 q 480 516 480 563 q 480 627 445 663 q 411 698 348 698 q 295 698 257 666 q 219 634 193 568 q 182 539 171 498 q 160 457 149 407 q 135 343 129 293 q 122 244 122 205 q 122 132 155 93 q 187 53 247 53 q 276 53 295 58 q 313 63 325 74 l 257 141 z m 381 22 q 356 1 320 -9 q 283 -20 239 -20 q 143 -20 89 41 q 35 103 35 212 q 35 253 42 307 q 49 360 64 424 q 78 488 93 535 q 108 582 125 617 q 163 693 219 732 q 276 770 351 770 q 454 770 508 711 q 562 651 562 537 q 562 467 546 377 q 529 288 501 204 q 486 161 469 127 q 452 94 431 69 l 496 8 l 446 -41 z"},"w":{"x_min":0,"x_max":633,"ha":633,"o":"m 147 0 l 63 0 l 44 560 l 120 560 l 124 101 l 303 560 l 386 560 l 386 101 l 572 560 l 656 560 l 406 0 l 324 0 l 327 458 z"},"-":{"x_min":0,"x_max":329,"ha":329,"o":"m 18 246 l 34 325 l 284 325 l 263 246 z"},"E":{"x_min":0,"x_max":478,"ha":478,"o":"m -11 0 l 146 752 l 475 752 l 459 678 l 217 678 l 165 430 l 426 430 l 410 356 l 150 356 l 91 76 l 377 76 l 362 0 z"},"s":{"x_min":0,"x_max":440,"ha":440,"o":"m -2 166 l 74 166 q 74 163 74 157 q 73 151 73 148 q 73 100 97 76 q 121 52 169 52 q 215 52 243 80 q 271 109 271 156 q 271 192 256 213 q 241 233 197 252 q 109 291 84 323 q 59 355 59 408 q 59 487 104 532 q 150 578 228 578 q 301 578 345 542 q 389 505 389 445 q 389 437 387 418 q 387 416 387 415 l 316 415 l 316 418 q 316 464 293 488 q 271 511 227 511 q 186 511 162 486 q 138 460 138 418 q 138 366 225 327 q 246 317 258 312 q 309 288 331 255 q 353 222 353 170 q 353 83 302 31 q 250 -20 164 -20 q 86 -20 41 20 q -4 61 -4 130 q -4 132 -3 145 q -2 157 -2 166 z"},">":{"x_min":0,"x_max":833,"ha":833,"o":"m 704 330 l 704 267 l 129 31 l 129 106 l 603 298 l 129 491 l 129 566 z"},"l":{"x_min":0,"x_max":204,"ha":204,"o":"m -16 0 l 143 750 l 223 750 l 64 0 z"},"8":{"x_min":0,"x_max":498,"ha":498,"o":"m 232 369 q 178 369 141 315 q 104 261 104 180 q 104 121 133 88 q 163 55 215 55 q 271 55 310 112 q 348 168 348 251 q 348 307 318 338 q 287 369 232 369 z m 302 684 q 253 684 222 643 q 191 603 191 540 q 191 490 216 462 q 241 434 285 434 q 334 434 365 476 q 396 518 396 585 q 396 631 371 658 q 346 684 302 684 z m 178 417 q 143 444 127 475 q 112 505 112 551 q 112 641 165 697 q 218 753 303 753 q 384 753 431 706 q 478 659 478 578 q 478 503 445 456 q 412 408 347 391 q 390 373 412 332 q 434 291 434 230 q 434 123 372 53 q 310 -17 213 -17 q 121 -17 71 36 q 20 89 20 186 q 20 276 64 341 q 108 405 178 417 z"},"\\":{"x_min":0,"x_max":278,"ha":278,"o":"m 131 -93 l 80 770 l 134 770 l 184 -93 z"},"e":{"x_min":0,"x_max":458,"ha":458,"o":"m 123 340 l 325 340 q 328 362 330 380 q 331 398 331 412 q 331 461 310 486 q 289 511 248 511 q 202 511 171 470 q 141 429 123 340 z m 371 184 q 356 89 305 35 q 254 -19 180 -19 q 102 -19 59 31 q 17 82 17 176 q 17 242 34 321 q 50 399 75 452 q 104 514 148 545 q 192 577 251 577 q 329 577 367 533 q 406 490 406 401 q 406 375 402 342 q 398 310 390 273 l 110 273 q 104 239 101 215 q 98 192 98 173 q 98 114 120 84 q 142 55 185 55 q 229 55 257 87 q 285 120 298 184 z"},"b":{"x_min":0,"x_max":487,"ha":487,"o":"m 268 509 q 237 509 210 486 q 183 463 162 419 q 139 370 122 296 q 106 222 106 168 q 106 115 127 86 q 147 57 185 57 q 226 57 255 85 q 285 112 307 170 q 326 220 338 284 q 350 348 350 398 q 350 451 328 480 q 307 509 268 509 z m 57 0 l -18 0 l 142 750 l 223 750 l 173 511 q 198 541 229 557 q 259 573 293 573 q 359 573 396 524 q 432 475 432 385 q 432 312 412 229 q 391 146 360 92 q 330 40 290 13 q 250 -13 201 -13 q 153 -13 120 12 q 87 38 76 84 z"},"%":{"x_min":0,"x_max":698,"ha":698,"o":"m 514 307 q 477 307 461 278 q 446 249 446 175 q 446 115 462 88 q 479 60 514 60 q 549 60 566 91 q 583 123 583 189 q 583 249 566 278 q 549 307 514 307 z m 378 187 q 378 277 412 322 q 445 367 513 367 q 584 367 618 323 q 652 279 652 187 q 652 96 617 48 q 582 0 515 0 q 444 0 411 45 q 378 91 378 187 z m 182 683 q 145 683 130 655 q 115 626 115 551 q 115 491 131 463 q 147 436 182 436 q 217 436 234 467 q 251 499 251 565 q 251 625 234 654 q 217 683 182 683 z m 46 563 q 46 653 80 698 q 113 743 181 743 q 251 743 286 699 q 320 655 320 564 q 320 473 284 424 q 249 376 182 376 q 112 376 79 421 q 46 466 46 563 z m 149 -14 l 488 757 l 545 757 l 207 -14 z"},"m":{"x_min":0,"x_max":748,"ha":748,"o":"m 60 0 l -19 0 l 100 560 l 175 560 l 161 496 q 196 534 235 553 q 273 572 315 572 q 365 572 394 552 q 422 531 429 490 q 471 533 510 552 q 548 572 591 572 q 646 572 676 546 q 706 520 706 471 q 706 456 704 440 q 703 425 699 409 l 612 0 l 533 0 l 619 405 q 623 422 624 435 q 626 448 626 455 q 626 480 609 496 q 592 511 563 511 q 524 511 488 487 q 452 462 425 418 l 336 0 l 257 0 l 343 405 q 346 421 348 435 q 350 448 350 455 q 350 480 333 496 q 316 511 287 511 q 247 511 210 485 q 172 458 149 418 z"},"#":{"x_min":0,"x_max":769,"ha":769,"o":"m 473 419 l 346 419 l 301 290 l 428 290 z m 451 712 l 372 490 l 497 490 l 577 712 l 657 712 l 579 490 l 726 490 l 701 419 l 553 419 l 508 291 l 665 291 l 640 219 l 483 219 l 404 -2 l 323 -2 l 402 219 l 276 219 l 197 -2 l 116 -2 l 194 219 l 43 219 l 69 291 l 220 291 l 265 419 l 104 419 l 129 490 l 291 490 l 370 712 z"},",":{"x_min":0,"x_max":249,"ha":249,"o":"m 31 99 l 123 99 l 97 -24 q 87 -73 56 -104 q 25 -136 -21 -143 l -14 -101 q 17 -90 33 -66 q 49 -42 54 0 l 10 0 z"},"n":{"x_min":0,"x_max":472,"ha":472,"o":"m 60 0 l -19 0 l 100 560 l 175 560 l 161 496 q 196 534 235 553 q 273 572 315 572 q 371 572 401 546 q 431 520 431 471 q 431 457 429 442 q 427 427 423 409 l 336 0 l 257 0 l 343 405 q 346 421 348 435 q 350 448 350 455 q 350 480 333 496 q 316 511 287 511 q 247 511 210 485 q 172 458 149 418 z"},"h":{"x_min":0,"x_max":473,"ha":473,"o":"m 62 0 l -18 0 l 142 750 l 221 750 l 169 503 q 202 537 239 554 q 276 572 316 572 q 372 572 402 546 q 432 520 432 471 q 432 456 430 440 q 429 425 425 409 l 337 0 l 258 0 l 344 405 q 349 427 350 439 q 352 450 352 455 q 352 480 335 496 q 317 511 288 511 q 250 511 213 487 q 177 462 150 418 z"},"z":{"x_min":0,"x_max":388,"ha":388,"o":"m 284 0 l -56 0 l -42 69 l 290 492 l 62 492 l 80 560 l 401 560 l 387 496 l 56 72 l 299 72 z"},"B":{"x_min":0,"x_max":558,"ha":558,"o":"m 91 72 l 205 72 q 294 72 336 114 q 377 155 377 245 q 377 308 341 333 q 306 359 201 359 l 151 359 z m 166 431 l 210 431 q 337 431 383 464 q 428 498 428 578 q 428 634 400 658 q 373 682 306 682 l 218 682 z m -10 0 l 146 752 l 313 752 q 418 752 468 710 q 517 669 517 581 q 517 502 477 452 q 437 401 365 388 q 415 370 441 329 q 467 289 467 231 q 467 120 397 60 q 327 0 195 0 z"},"K":{"x_min":0,"x_max":509,"ha":509,"o":"m 160 410 l 476 752 l 587 752 l 296 448 l 446 0 l 357 0 l 230 377 l 131 276 l 75 0 l -11 0 l 145 752 l 231 752 z"},"R":{"x_min":0,"x_max":555,"ha":555,"o":"m 162 412 l 241 412 q 373 412 418 448 q 463 483 463 572 q 463 632 432 657 q 401 682 322 682 l 218 682 z m -10 0 l 147 752 l 325 752 q 442 752 494 708 q 546 665 546 569 q 546 483 504 432 q 462 380 385 371 q 425 363 449 331 q 473 299 473 253 q 473 240 471 223 q 469 206 464 176 l 445 73 q 445 71 444 66 q 442 56 442 50 q 442 38 446 28 q 450 19 460 8 l 460 0 l 363 0 q 359 11 357 23 q 355 34 355 48 q 355 55 356 66 q 358 78 361 95 l 381 197 q 384 212 385 226 q 387 241 387 252 q 387 301 358 321 q 330 341 250 341 l 147 341 l 76 0 z"},"T":{"x_min":0,"x_max":407,"ha":407,"o":"m 167 0 l 81 0 l 222 681 l 40 681 l 54 752 l 479 752 l 464 681 l 308 681 z"},"P":{"x_min":0,"x_max":530,"ha":530,"o":"m 159 395 l 236 395 q 357 395 400 433 q 443 471 443 565 q 443 629 414 656 q 385 682 311 682 l 217 682 z m 76 0 l -10 0 l 146 752 l 316 752 q 428 752 477 707 q 527 661 527 562 q 527 440 459 382 q 392 324 250 324 l 144 324 z"},"|":{"x_min":0,"x_max":500,"ha":500,"o":"m 287 764 l 287 -236 l 214 -236 l 214 764 z"},"t":{"x_min":0,"x_max":259,"ha":259,"o":"m 100 124 q 98 114 97 106 q 96 98 96 94 q 96 75 105 65 q 114 56 134 56 q 144 56 166 59 q 176 61 181 61 l 166 -9 q 155 -12 143 -14 q 131 -15 116 -15 q 65 -15 39 7 q 13 28 13 70 q 13 86 21 122 q 23 133 24 138 l 102 500 l 36 500 l 49 560 l 115 560 l 147 709 l 226 709 l 194 560 l 279 560 l 266 500 l 181 500 z"},"M":{"x_min":0,"x_max":739,"ha":739,"o":"m 74 0 l -11 0 l 147 752 l 278 752 l 313 113 l 612 752 l 747 752 l 594 0 l 510 0 l 667 710 l 330 0 l 252 0 l 212 709 z"},"g":{"x_min":0,"x_max":491,"ha":491,"o":"m 392 560 l 467 560 l 352 18 q 325 -108 280 -153 q 235 -198 145 -198 q 69 -198 29 -162 q -11 -125 -11 -56 l -11 -46 l 66 -46 l 66 -54 q 66 -93 87 -113 q 108 -134 149 -134 q 204 -134 233 -93 q 262 -53 278 51 q 253 21 222 5 q 191 -11 157 -11 q 92 -11 55 39 q 19 88 19 178 q 19 253 40 335 q 60 417 91 471 q 122 523 161 550 q 201 576 250 576 q 297 576 331 550 q 364 524 375 478 z m 183 53 q 214 53 241 76 q 268 100 289 144 q 312 193 329 267 q 345 340 345 394 q 345 447 324 476 q 303 505 265 505 q 225 505 196 478 q 167 451 144 392 q 125 341 113 278 q 101 215 101 163 q 101 111 123 82 q 145 53 183 53 z"},"j":{"x_min":0,"x_max":206,"ha":206,"o":"m 128 660 l 149 757 l 229 757 l 209 660 z m 56 -54 q 38 -140 13 -169 q -12 -198 -56 -198 q -69 -198 -81 -197 q -93 -196 -105 -195 l -92 -131 l -75 -131 q -41 -131 -28 -75 l -28 -73 l 107 560 l 187 560 z"},"i":{"x_min":0,"x_max":204,"ha":204,"o":"m 124 660 l 144 757 l 225 757 l 204 660 z m 64 0 l -17 0 l 102 560 l 183 560 z"},"y":{"x_min":0,"x_max":407,"ha":407,"o":"m 160 -24 q 112 -128 74 -164 q 37 -199 -16 -199 q -28 -199 -42 -197 q -55 -194 -70 -189 l -53 -128 q -45 -131 -38 -132 q -31 -133 -21 -133 q 0 -133 16 -122 q 32 -111 44 -88 l 83 -12 l 42 560 l 121 560 l 148 108 l 342 560 l 430 560 z"},"@":{"x_min":0,"x_max":1000,"ha":1000,"o":"m 627 417 l 655 473 l 719 473 l 648 192 q 646 184 645 177 q 644 169 644 163 q 644 141 656 129 q 669 117 693 117 q 716 117 743 130 q 770 143 795 167 q 834 204 856 258 q 878 312 878 372 q 878 499 785 577 q 692 656 541 656 q 476 656 421 642 q 366 628 318 600 q 225 544 173 454 q 122 363 122 254 q 122 167 152 104 q 182 40 246 -9 q 295 -46 362 -67 q 428 -87 502 -87 q 584 -87 662 -63 q 740 -39 805 6 l 832 -34 q 760 -88 678 -116 q 597 -143 508 -143 q 415 -143 338 -120 q 261 -97 201 -52 q 126 6 89 82 q 52 158 52 255 q 52 335 77 408 q 103 480 151 539 q 222 626 323 671 q 423 716 545 716 q 625 716 696 694 q 768 672 820 632 q 883 583 916 519 q 949 455 949 381 q 949 295 918 227 q 887 159 828 112 q 795 85 755 71 q 715 57 674 57 q 625 57 601 76 q 576 96 576 134 l 576 143 q 549 100 513 79 q 477 58 429 58 q 354 58 315 100 q 276 141 276 220 q 276 335 343 413 q 411 490 509 490 q 550 490 580 472 q 609 454 627 417 z m 581 232 l 610 347 q 602 390 576 414 q 551 437 513 437 q 446 437 400 374 q 354 310 354 218 q 354 167 378 139 q 401 111 445 111 q 492 111 530 145 q 568 178 581 232 z"},".":{"x_min":0,"x_max":249,"ha":249,"o":"m 96 0 l 3 0 l 24 100 l 118 100 z"},"p":{"x_min":0,"x_max":487,"ha":487,"o":"m 268 508 q 228 508 198 480 q 169 452 149 395 q 130 338 118 274 q 106 209 106 169 q 106 115 129 86 q 152 57 195 57 q 230 57 257 81 q 283 105 303 154 q 323 204 336 272 q 349 340 349 396 q 349 449 328 479 q 307 508 268 508 z m 165 506 q 188 539 221 558 q 254 576 291 576 q 358 576 395 525 q 431 473 431 378 q 431 208 366 98 q 301 -11 199 -11 q 156 -11 125 12 q 93 36 79 79 l 22 -190 l -57 -190 l 103 560 l 178 560 z"},"X":{"x_min":0,"x_max":490,"ha":490,"o":"m 33 0 l -64 0 l 195 394 l 54 752 l 144 752 l 249 475 l 429 752 l 524 752 l 284 386 l 436 0 l 344 0 l 230 300 z"},"*":{"x_min":0,"x_max":500,"ha":500,"o":"m 294 516 l 207 389 l 150 430 l 247 550 l 104 589 l 125 656 l 263 606 l 263 752 l 324 752 l 324 606 l 461 654 l 485 590 l 340 550 l 438 430 l 382 389 z"},"Y":{"x_min":0,"x_max":458,"ha":458,"o":"m 122 0 l 184 303 l 21 752 l 113 752 l 235 391 l 439 752 l 536 752 l 273 313 l 207 0 z"},"c":{"x_min":0,"x_max":458,"ha":458,"o":"m 381 192 q 375 93 323 38 q 271 -18 187 -18 q 104 -18 61 30 q 19 78 19 172 q 19 240 35 315 q 51 391 77 449 q 106 516 150 547 q 193 578 256 578 q 335 578 376 533 q 417 487 417 398 q 417 388 417 383 q 417 378 416 373 l 340 373 l 340 406 q 340 456 318 481 q 296 507 253 507 q 215 507 190 485 q 165 463 147 416 q 126 359 113 290 q 100 222 100 172 q 100 113 124 83 q 147 54 195 54 q 244 54 271 88 q 299 122 307 192 z"},"!":{"x_min":0,"x_max":259,"ha":259,"o":"m 23 98 l 116 98 l 97 0 l 4 0 z m 67 188 l 119 534 l 168 752 l 260 752 l 210 525 l 110 188 z"},"/":{"x_min":0,"x_max":278,"ha":278,"o":"m 287 770 l 19 -93 l -35 -93 l 232 770 z"},"[":{"x_min":0,"x_max":319,"ha":319,"o":"m 156 -189 l -7 -189 l 193 752 l 349 752 l 341 698 l 260 698 l 84 -135 l 170 -135 z"},"6":{"x_min":0,"x_max":498,"ha":498,"o":"m 254 416 q 194 416 156 353 q 117 290 117 189 q 117 124 142 91 q 167 57 214 57 q 248 57 272 73 q 296 88 315 122 q 333 154 343 196 q 354 238 354 274 q 354 348 330 382 q 306 416 254 416 z m 144 412 q 172 447 205 464 q 237 481 275 481 q 350 481 395 427 q 440 372 440 280 q 440 151 375 67 q 311 -18 212 -18 q 125 -18 80 41 q 35 99 35 213 q 35 309 59 418 q 83 527 121 603 q 159 680 208 716 q 257 752 324 752 q 396 752 439 707 q 482 662 482 586 l 482 578 q 482 578 482 577 q 481 569 481 563 l 406 563 q 404 625 383 655 q 362 684 319 684 q 258 684 215 617 q 171 549 144 412 z"},"r":{"x_min":0,"x_max":301,"ha":301,"o":"m -17 0 l 102 560 l 175 560 l 155 470 q 182 519 221 545 q 261 572 305 572 q 312 572 320 571 q 328 570 335 568 l 320 487 q 311 490 304 491 q 297 492 291 492 q 231 492 190 448 q 149 404 131 321 l 63 0 z"},"2":{"x_min":0,"x_max":498,"ha":498,"o":"m 394 0 l -16 0 q -14 98 43 181 q 100 265 212 333 l 282 375 q 340 410 369 455 q 398 499 398 553 q 398 615 370 649 q 342 682 291 682 q 235 682 204 642 q 173 601 163 515 l 82 515 q 91 628 146 690 q 201 753 292 753 q 381 753 432 701 q 482 649 482 560 q 482 477 447 419 q 412 362 329 312 l 251 266 q 174 220 129 170 q 83 120 78 74 l 410 74 z"},"{":{"x_min":0,"x_max":500,"ha":500,"o":"m 423 648 l 403 648 q 344 648 324 626 q 304 604 304 536 l 304 418 q 304 340 282 307 q 261 273 206 259 q 261 245 283 212 q 304 179 304 100 l 304 -18 q 304 -87 324 -108 q 345 -130 404 -130 l 423 -130 l 423 -202 l 402 -202 q 349 -202 319 -197 q 290 -191 269 -178 q 242 -162 231 -131 q 220 -100 220 -28 l 220 92 q 220 165 194 194 q 167 224 103 224 q 100 224 93 224 q 85 223 82 223 l 82 296 q 86 296 93 295 q 101 295 104 295 q 167 295 194 324 q 220 354 220 426 l 220 546 q 220 618 231 649 q 242 679 269 696 q 291 709 322 715 q 353 721 405 721 l 423 721 z"},"9":{"x_min":0,"x_max":498,"ha":498,"o":"m 251 320 q 311 320 350 383 q 388 446 388 546 q 388 611 363 645 q 338 678 291 678 q 256 678 233 663 q 209 648 190 614 q 172 582 162 540 q 151 498 151 462 q 151 389 175 354 q 199 320 251 320 z m 361 324 q 332 289 300 271 q 268 254 230 254 q 155 254 110 308 q 65 363 65 455 q 65 584 130 668 q 195 753 293 753 q 380 753 425 694 q 470 636 470 522 q 470 426 446 318 q 422 209 384 133 q 346 56 297 19 q 248 -17 181 -17 q 109 -17 66 28 q 23 74 23 150 l 23 158 q 23 158 23 159 q 24 166 24 172 l 99 172 q 101 111 122 81 q 143 52 186 52 q 247 52 291 119 q 334 187 361 324 z"}," ":{"x_min":0,"x_max":249,"ha":249,"o":""},"I":{"x_min":0,"x_max":225,"ha":225,"o":"m 78 0 l -11 0 l 146 752 l 234 752 z"},"H":{"x_min":0,"x_max":581,"ha":581,"o":"m 76 0 l -10 0 l 146 752 l 232 752 l 168 441 l 440 441 l 504 752 l 591 752 l 434 0 l 348 0 l 424 363 l 152 363 z"},"4":{"x_min":0,"x_max":498,"ha":498,"o":"m 294 266 l 371 633 l 88 266 z m 318 0 l 240 0 l 277 196 l 1 196 l 17 274 l 391 752 l 469 752 l 372 266 l 447 266 l 432 196 l 357 196 z"},"~":{"x_min":0,"x_max":833,"ha":833,"o":"m 747 300 q 696 265 650 248 q 604 231 557 231 q 512 231 432 259 q 421 263 416 265 l 408 268 q 322 297 275 297 q 234 297 189 279 q 145 261 87 220 l 87 296 q 139 331 186 349 q 232 366 276 366 q 306 366 338 360 q 370 353 418 336 q 426 333 441 328 q 519 300 558 300 q 601 300 646 318 q 690 336 747 376 z"},"D":{"x_min":0,"x_max":591,"ha":591,"o":"m 90 75 l 186 75 q 279 75 318 96 q 356 118 387 172 q 418 230 437 319 q 456 407 456 504 q 456 599 418 638 q 380 677 287 677 l 216 677 z m -11 0 l 146 752 l 307 752 q 431 752 489 690 q 547 629 547 499 q 547 387 518 279 q 488 170 443 107 q 400 48 345 24 q 291 0 174 0 z"},"^":{"x_min":0,"x_max":1000,"ha":1000,"o":"m 545 712 l 794 440 l 706 440 l 500 645 l 293 440 l 205 440 l 454 712 z"},"0":{"x_min":0,"x_max":498,"ha":498,"o":"m 299 680 q 252 680 221 644 q 191 608 167 523 q 139 420 123 328 q 107 236 107 181 q 107 118 130 86 q 154 55 201 55 q 242 55 272 87 q 301 119 324 189 q 334 220 345 265 q 355 310 366 362 q 380 434 387 485 q 394 536 394 565 q 394 620 369 650 q 344 680 299 680 z m 24 182 q 24 231 32 295 q 40 358 56 430 q 68 487 82 531 q 95 574 111 609 q 144 679 192 716 q 241 752 301 752 q 384 752 429 698 q 474 645 474 544 q 474 507 468 458 q 461 409 446 336 q 432 269 418 219 q 404 170 389 134 q 357 60 308 21 q 258 -17 194 -17 q 111 -17 68 34 q 24 85 24 182 z"},"F":{"x_min":0,"x_max":444,"ha":444,"o":"m 475 752 l 460 676 l 217 676 l 165 430 l 404 430 l 389 356 l 150 356 l 76 0 l -10 0 l 146 752 z"},"`":{"x_min":0,"x_max":500,"ha":500,"o":"m 374 621 l 326 621 l 180 748 l 275 748 z"},"k":{"x_min":0,"x_max":417,"ha":417,"o":"m -16 0 l 140 750 l 221 750 l 125 309 l 356 560 l 454 560 l 244 345 l 352 0 l 269 0 l 184 287 l 104 205 l 62 0 z"},"u":{"x_min":0,"x_max":472,"ha":472,"o":"m 91 154 q 87 137 86 124 q 84 111 84 105 q 84 80 101 64 q 118 49 147 49 q 186 49 222 73 q 259 97 285 141 l 374 560 l 453 560 l 334 0 l 259 0 l 273 63 q 238 25 200 6 q 162 -13 120 -13 q 64 -13 34 13 q 4 40 4 88 q 4 104 6 119 q 7 134 11 150 l 98 560 l 177 560 z"},"]":{"x_min":0,"x_max":319,"ha":319,"o":"m 127 752 l 290 752 l 90 -189 l -66 -189 l -58 -134 l 23 -134 l 199 699 l 113 699 z"},"U":{"x_min":0,"x_max":580,"ha":580,"o":"m 128 242 q 127 240 127 236 q 117 188 117 160 q 117 107 151 81 q 185 54 252 54 q 310 54 340 85 q 371 116 387 194 l 506 752 l 593 752 l 478 206 q 453 85 398 34 q 344 -18 245 -18 q 143 -18 88 27 q 34 72 34 156 q 34 175 38 209 q 42 244 50 280 l 147 752 l 234 752 z"},"o":{"x_min":0,"x_max":487,"ha":487,"o":"m 254 507 q 219 507 193 485 q 167 463 148 416 q 125 359 111 291 q 96 222 96 171 q 96 113 120 84 q 145 54 192 54 q 234 54 262 79 q 290 104 308 160 q 329 224 341 288 q 353 353 353 395 q 353 449 327 478 q 302 507 254 507 z m 15 173 q 15 240 32 316 q 48 392 76 450 q 106 514 150 546 q 194 578 253 578 q 341 578 388 530 q 434 481 434 389 q 434 318 415 236 q 396 153 369 99 q 339 40 294 11 q 249 -18 188 -18 q 102 -18 58 30 q 15 77 15 173 z"},"N":{"x_min":0,"x_max":581,"ha":581,"o":"m 75 0 l -11 0 l 146 752 l 258 752 l 378 97 l 505 752 l 591 752 l 434 0 l 320 0 l 202 662 z"},"+":{"x_min":0,"x_max":833,"ha":833,"o":"m 451 596 l 451 332 l 709 332 l 709 264 l 451 264 l 451 0 l 382 0 l 382 264 l 124 264 l 124 332 l 382 332 l 382 596 z"},"G":{"x_min":0,"x_max":588,"ha":588,"o":"m 437 303 l 275 303 l 289 374 l 535 374 l 460 0 l 398 0 l 407 78 q 384 32 343 7 q 302 -17 246 -17 q 148 -17 92 46 q 36 110 36 222 q 36 262 43 314 q 50 365 63 426 q 77 487 92 534 q 108 581 126 617 q 165 695 221 733 q 278 771 353 771 q 445 771 494 720 q 544 669 544 576 q 544 562 543 545 q 542 527 539 504 l 458 504 q 458 511 459 524 q 462 555 462 565 q 462 631 432 666 q 401 701 344 701 q 292 701 256 668 q 219 634 193 564 q 161 476 143 380 q 125 285 125 204 q 125 129 158 88 q 192 47 253 47 q 329 47 378 115 q 428 184 437 303 z"},"q":{"x_min":0,"x_max":487,"ha":487,"o":"m 392 560 l 467 560 l 308 -190 l 227 -190 l 278 51 q 253 21 222 5 q 190 -11 156 -11 q 90 -11 55 37 q 20 85 20 175 q 20 253 40 335 q 60 417 91 471 q 121 523 161 550 q 202 576 250 576 q 297 576 331 550 q 364 524 375 478 z m 181 53 q 212 53 239 76 q 266 100 287 144 q 310 193 326 267 q 343 340 343 394 q 343 447 322 476 q 301 505 263 505 q 223 505 194 478 q 165 451 142 392 q 123 341 111 278 q 99 215 99 163 q 99 111 121 82 q 143 53 181 53 z"},"d":{"x_min":0,"x_max":484,"ha":484,"o":"m 179 54 q 219 54 248 82 q 278 109 299 166 q 317 214 328 278 q 340 341 340 391 q 340 447 317 476 q 294 506 251 506 q 217 506 190 481 q 163 457 143 408 q 124 359 110 292 q 97 224 97 174 q 97 116 118 85 q 140 54 179 54 z m 282 56 q 259 23 226 5 q 193 -13 156 -13 q 89 -13 53 38 q 16 88 16 181 q 16 257 35 338 q 55 418 85 471 q 114 521 156 547 q 198 573 248 573 q 291 573 321 550 q 352 526 369 481 l 426 750 l 503 750 l 344 0 l 269 0 z"},"1":{"x_min":0,"x_max":498,"ha":498,"o":"m 246 0 l 166 0 l 283 587 q 257 578 231 573 q 205 569 179 569 q 165 569 152 570 q 138 570 125 572 l 137 629 q 214 633 259 661 q 304 688 336 752 l 399 752 z"},"5":{"x_min":0,"x_max":498,"ha":498,"o":"m 134 363 l 65 363 l 176 741 l 485 741 l 469 669 l 228 669 l 167 458 q 189 474 215 482 q 240 490 269 490 q 346 490 390 437 q 434 383 434 289 q 434 153 368 67 q 302 -20 199 -20 q 115 -20 65 29 q 16 77 16 160 q 16 169 17 180 q 19 191 21 206 l 99 206 q 99 201 98 192 q 97 175 97 169 q 97 116 124 86 q 150 55 196 55 q 264 55 308 123 q 352 190 352 292 q 352 354 323 390 q 294 426 247 426 q 213 426 181 408 q 149 390 134 363 z"}}}
